<svg width="24" height="24" viewBox="0 0 24 24" fill="none" xmlns="http://www.w3.org/2000/svg">
<path d="M12.2756 5.17013C11.8876 4.98613 11.5206 4.81291 11.1866 4.64362C10.3307 4.21046 9.55453 4 8.81476 4C7.3248 4 6.29373 4.86828 5.6471 5.52146L2.51145 8.69227C0.833512 10.3889 0.565498 12.1162 1.64336 14.2937C1.81049 14.6318 1.98246 15.0033 2.16437 15.3967C3.14523 17.5158 4.15907 19.707 5.81858 19.707C5.86515 19.707 5.91123 19.7056 5.95829 19.7019C7.67091 19.5664 8.15672 17.3393 8.58555 15.3747C8.65371 15.0635 8.71821 14.7651 8.78444 14.4976C8.89965 14.035 9.12643 13.7476 9.74782 13.1185L9.8332 13.0317L9.88583 12.9786L10.0241 12.8394C10.6469 12.2102 10.9315 11.9814 11.3899 11.8645C11.6523 11.7979 11.947 11.7322 12.2543 11.6641C14.1981 11.2307 16.4019 10.7397 16.5353 9.00709C16.6699 7.2487 14.4362 6.19203 12.2756 5.17013ZM15.5386 8.91839C15.4443 10.14 12.737 10.5005 11.1258 10.9087C10.4132 11.0905 9.9795 11.4715 9.32511 12.1327C9.27951 12.1788 9.23367 12.2248 9.18734 12.2716C9.1415 12.318 9.0959 12.365 9.05005 12.4108C8.39566 13.0726 8.01922 13.5104 7.83998 14.2312C7.43565 15.8602 7.07913 18.5978 5.87126 18.6939C5.84945 18.6955 5.8276 18.6962 5.80574 18.6961C4.52412 18.6961 3.44576 15.7524 2.49426 13.8318C1.52795 11.8794 1.94197 10.6128 3.18188 9.35908C3.41982 9.11826 3.71571 8.81936 4.07832 8.45285C4.44869 8.07825 4.88914 7.63283 5.4111 7.10535C5.77346 6.73882 6.06913 6.44041 6.30731 6.19909C7.0774 5.42047 7.85258 4.96428 8.7922 4.96428C9.36534 4.96428 9.99936 5.13358 10.7306 5.50402C12.6628 6.48257 15.6405 7.59388 15.5386 8.91839ZM8.26712 9.39216H9.23731V8.41215H8.26712V9.39216ZM8.26712 7.92215H9.23731V6.94214H8.26712V7.92215ZM9.7224 7.92215H10.6926V6.94214H9.7224V7.92215ZM9.7224 9.39216H10.6926V8.41215H9.7224V9.39216ZM6.00999 12.3346L6.37891 11.962C6.56082 11.7782 6.56082 11.4801 6.37891 11.2966C6.197 11.1128 5.9023 11.1128 5.72039 11.2966L5.35124 11.6695L4.98208 11.2966C4.80017 11.1128 4.50548 11.1128 4.32357 11.2966C4.14165 11.4803 4.14165 11.7782 4.32357 11.962L4.69271 12.3349L4.32357 12.7078C4.14165 12.8913 4.14165 13.1892 4.32357 13.3729C4.50548 13.5567 4.80041 13.5567 4.98208 13.3729L5.35124 13.0003L5.73107 13.384C5.91298 13.5677 6.20767 13.5677 6.38958 13.384C6.57149 13.2002 6.57149 12.9021 6.38958 12.7183L6.00999 12.3346Z" fill="#7D92B5"/>
<path d="M21.7065 17.0801V19.0401C21.7065 19.8894 19.6794 21.0001 17.1789 21.0001C14.6784 21.0001 12.6514 19.8894 12.6514 19.0401V17.4067" stroke="#7D92B5" stroke-linecap="round" stroke-linejoin="round"/>
<path d="M12.8418 17.576C13.4013 18.326 15.1314 19.0297 17.1792 19.0297C19.6797 19.0297 21.7067 17.9804 21.7067 17.0788C21.7067 16.5725 21.0683 16.0178 20.0665 15.6284" stroke="#7D92B5" stroke-linecap="round" stroke-linejoin="round"/>
<path d="M19.766 13.8135V15.7735C19.766 16.6228 17.739 17.7335 15.2385 17.7335C12.738 17.7335 10.7109 16.6228 10.7109 15.7735V13.8135" stroke="#7D92B5" stroke-linecap="round" stroke-linejoin="round"/>
<path fill-rule="evenodd" clip-rule="evenodd" d="M15.2385 15.7631C17.739 15.7631 19.766 14.7138 19.766 13.8122C19.766 12.91 17.739 11.8535 15.2385 11.8535C12.738 11.8535 10.7109 12.91 10.7109 13.8122C10.7109 14.7138 12.738 15.7631 15.2385 15.7631Z" stroke="#7D92B5" stroke-linecap="round" stroke-linejoin="round"/>
</svg>
