<svg width="35" height="35" viewBox="0 0 35 35" fill="none" xmlns="http://www.w3.org/2000/svg">
<path opacity="0.2" d="M0 16.324C0 2.88119 2.88119 0 16.324 0H18.676C32.1188 0 35 2.88119 35 16.324V18.676C35 32.1188 32.1188 35 18.676 35H16.324C2.88119 35 0 32.1188 0 18.676V16.324Z" fill="#EFF1F6"/>
<mask id="path-2-inside-1_839_22198" fill="white">
<path d="M18.0504 13.0141C17.809 13.0141 17.6133 12.8183 17.6133 12.5769C17.6133 11.0087 18.5076 10.2221 19.2967 9.52804C19.9699 8.93585 20.5514 8.42439 20.5514 7.47667C20.5514 7.23527 20.7471 7.03955 20.9885 7.03955C21.2299 7.03955 21.4256 7.23527 21.4256 7.47667C21.4256 8.8197 20.6013 9.54476 19.874 10.1845C19.1301 10.8388 18.4875 11.404 18.4875 12.5769C18.4875 12.8184 18.2918 13.0141 18.0504 13.0141Z"/>
</mask>
<path d="M18.0504 13.0141C17.809 13.0141 17.6133 12.8183 17.6133 12.5769C17.6133 11.0087 18.5076 10.2221 19.2967 9.52804C19.9699 8.93585 20.5514 8.42439 20.5514 7.47667C20.5514 7.23527 20.7471 7.03955 20.9885 7.03955C21.2299 7.03955 21.4256 7.23527 21.4256 7.47667C21.4256 8.8197 20.6013 9.54476 19.874 10.1845C19.1301 10.8388 18.4875 11.404 18.4875 12.5769C18.4875 12.8184 18.2918 13.0141 18.0504 13.0141Z" fill="#597B91"/>
<path d="M19.2967 9.52804L19.9571 10.2789L19.9571 10.2789L19.2967 9.52804ZM19.874 10.1845L20.5345 10.9353L20.5345 10.9353L19.874 10.1845ZM18.0504 12.0141C18.3613 12.0141 18.6133 12.266 18.6133 12.5769H16.6133C16.6133 13.3706 17.2567 14.0141 18.0504 14.0141V12.0141ZM18.6133 12.5769C18.6133 11.4944 19.1674 10.9735 19.9571 10.2789L18.6362 8.77716C17.8478 9.47062 16.6133 10.5229 16.6133 12.5769H18.6133ZM19.9571 10.2789C20.5842 9.72737 21.5514 8.93568 21.5514 7.47667H19.5514C19.5514 7.9131 19.3557 8.14433 18.6362 8.77717L19.9571 10.2789ZM21.5514 7.47667C21.5514 7.78756 21.2994 8.03955 20.9885 8.03955V6.03955C20.1948 6.03955 19.5514 6.68299 19.5514 7.47667H21.5514ZM20.9885 8.03955C20.6776 8.03955 20.4256 7.78756 20.4256 7.47667H22.4256C22.4256 6.68299 21.7822 6.03955 20.9885 6.03955V8.03955ZM20.4256 7.47667C20.4256 8.32192 19.9621 8.77521 19.2136 9.43363L20.5345 10.9353C21.2405 10.3143 22.4256 9.31749 22.4256 7.47667H20.4256ZM19.2136 9.43361C18.4846 10.0748 17.4875 10.9098 17.4875 12.5769H19.4875C19.4875 11.8982 19.7755 11.6029 20.5345 10.9353L19.2136 9.43361ZM17.4875 12.5769C17.4875 12.266 17.7396 12.0141 18.0504 12.0141V14.0141C18.844 14.0141 19.4875 13.3707 19.4875 12.5769H17.4875Z" fill="#7D92B5" mask="url(#path-2-inside-1_839_22198)"/>
<path d="M27.927 15.2642C27.8824 15.1577 27.8388 15.0528 27.7954 14.9498C27.3521 13.3277 25.868 12.1353 24.1052 12.1353H11.9204C10.2432 12.1353 8.81825 13.2147 8.30194 14.7166C8.22473 14.8932 8.14923 15.0762 8.07047 15.2642C6.83963 18.1959 7.07218 20.778 7.07218 24.3049C7.07218 26.5398 9.81324 27.0748 10.9531 25.3256C11.2732 24.8345 12.4468 23.2057 13.6007 21.4325C13.9572 21.6234 14.3555 21.723 14.76 21.7225C16.7849 21.7225 16.8034 20.1168 18.1072 20.1168C18.1433 20.1168 18.1745 20.1138 18.2022 20.1089C18.23 20.1138 18.2611 20.1168 18.2972 20.1168C19.6011 20.1168 19.6197 21.7225 21.6445 21.7225C21.9496 21.7225 22.2415 21.6666 22.5111 21.5651C23.646 23.2864 24.7777 24.8467 25.0897 25.3256C26.2296 27.0748 28.9707 26.481 28.9707 24.3049C28.9707 20.778 29.1579 18.1959 27.927 15.2642Z" fill="#EFF1F6"/>
<path d="M27.2254 16.0844C27.2254 17.8393 25.8027 19.262 24.0478 19.262C22.2928 19.262 20.8701 17.8393 20.8701 16.0844C20.8701 14.3294 22.2928 12.9067 24.0478 12.9067C25.8027 12.9067 27.2254 14.3294 27.2254 16.0844ZM12.1474 12.9067C10.3924 12.9067 8.96973 14.3294 8.96973 16.0844C8.96973 17.8393 10.3924 19.262 12.1474 19.262C13.9023 19.262 15.325 17.8393 15.325 16.0844C15.325 14.3294 13.9023 12.9067 12.1474 12.9067Z" fill="#9EAEC7"/>
<path d="M24.1052 18.5424C24.5718 18.5424 24.9501 18.1641 24.9501 17.6975C24.9501 17.2308 24.5718 16.8525 24.1052 16.8525C23.6385 16.8525 23.2603 17.2308 23.2603 17.6975C23.2603 18.1641 23.6385 18.5424 24.1052 18.5424Z" fill="#00B1FF"/>
<path d="M24.1052 15.3784C24.5718 15.3784 24.9501 15.0001 24.9501 14.5334C24.9501 14.0668 24.5718 13.6885 24.1052 13.6885C23.6385 13.6885 23.2603 14.0668 23.2603 14.5334C23.2603 15.0001 23.6385 15.3784 24.1052 15.3784Z" fill="#FFB636"/>
<path d="M22.5232 16.9604C22.9898 16.9604 23.3681 16.5821 23.3681 16.1154C23.3681 15.6488 22.9898 15.2705 22.5232 15.2705C22.0565 15.2705 21.6782 15.6488 21.6782 16.1154C21.6782 16.5821 22.0565 16.9604 22.5232 16.9604Z" fill="#FF473E"/>
<path d="M25.6877 16.9604C26.1544 16.9604 26.5326 16.5821 26.5326 16.1154C26.5326 15.6488 26.1544 15.2705 25.6877 15.2705C25.2211 15.2705 24.8428 15.6488 24.8428 16.1154C24.8428 16.5821 25.2211 16.9604 25.6877 16.9604Z" fill="#00B89C"/>
<path d="M17.3152 17.5661H16.2584C16.1707 17.5661 16.0867 17.5312 16.0247 17.4692C15.9627 17.4072 15.9278 17.3231 15.9278 17.2355C15.9278 17.1478 15.9627 17.0637 16.0247 17.0017C16.0867 16.9397 16.1707 16.9049 16.2584 16.9049H17.3152C17.4029 16.9049 17.487 16.9397 17.549 17.0017C17.611 17.0637 17.6458 17.1478 17.6458 17.2355C17.6458 17.3231 17.611 17.4072 17.549 17.4692C17.487 17.5312 17.4029 17.5661 17.3152 17.5661ZM20.3818 17.2355C20.3818 17.1478 20.347 17.0637 20.285 17.0017C20.223 16.9397 20.1389 16.9049 20.0512 16.9049H18.9944C18.9067 16.9049 18.8226 16.9397 18.7606 17.0017C18.6986 17.0637 18.6638 17.1478 18.6638 17.2355C18.6638 17.3231 18.6986 17.4072 18.7606 17.4692C18.8226 17.5312 18.9067 17.5661 18.9944 17.5661H20.0512C20.1389 17.566 20.223 17.5312 20.2849 17.4692C20.3469 17.4072 20.3818 17.3231 20.3818 17.2355ZM14.7684 17.7922C13.9566 17.7922 13.2986 18.4502 13.2986 19.2619C13.2986 20.0737 13.9566 20.7317 14.7684 20.7317C15.5801 20.7317 16.2381 20.0737 16.2381 19.2619C16.2381 18.4502 15.5801 17.7922 14.7684 17.7922ZM21.332 17.7922C20.5203 17.7922 19.8623 18.4502 19.8623 19.2619C19.8623 20.0737 20.5203 20.7317 21.332 20.7317C22.1438 20.7317 22.8018 20.0737 22.8018 19.2619C22.8018 18.4502 22.1438 17.7922 21.332 17.7922ZM10.9565 15.3224H9.81131C9.67793 15.3224 9.56982 15.4688 9.56982 15.6493V16.453C9.56982 16.6336 9.67793 16.7799 9.81131 16.7799H10.9565C11.015 16.7799 11.0716 16.7512 11.1156 16.699L11.4546 16.2971C11.5645 16.1669 11.5645 15.9355 11.4546 15.8053L11.1156 15.4034C11.0715 15.3512 11.015 15.3224 10.9565 15.3224ZM12.876 14.9433V13.7981C12.876 13.6647 12.7296 13.5566 12.5491 13.5566H11.7454C11.5648 13.5566 11.4185 13.6647 11.4185 13.7981V14.9433C11.4185 15.0019 11.4473 15.0584 11.4994 15.1024L11.9013 15.4415C12.0315 15.5513 12.2629 15.5513 12.3931 15.4415L12.795 15.1024C12.8472 15.0584 12.876 15.0019 12.876 14.9433ZM13.3379 16.8462H14.4831C14.6165 16.8462 14.7246 16.6999 14.7246 16.5193V15.7156C14.7246 15.5351 14.6165 15.3887 14.4831 15.3887H13.3379C13.2794 15.3887 13.2229 15.4175 13.1788 15.4697L12.8397 15.8715C12.7299 16.0018 12.7299 16.2332 12.8397 16.3634L13.1788 16.7652C13.2229 16.8175 13.2794 16.8462 13.3379 16.8462ZM11.4185 17.2254V18.3706C11.4185 18.5039 11.5648 18.612 11.7454 18.612H12.5491C12.7296 18.612 12.876 18.5039 12.876 18.3706V17.2254C12.876 17.1668 12.8472 17.1103 12.795 17.0662L12.3932 16.7272C12.2629 16.6173 12.0315 16.6173 11.9013 16.7272L11.4995 17.0662C11.4472 17.1103 11.4185 17.1668 11.4185 17.2254Z" fill="#4A5F82"/>
</svg>
