<svg width="24" height="24" viewBox="0 0 24 24" fill="none" xmlns="http://www.w3.org/2000/svg">
<path fill-rule="evenodd" clip-rule="evenodd" d="M5 9H6V14H18V9H19V14H20.25C20.3163 14 20.3799 14.0263 20.4268 14.0732C20.4737 14.1201 20.5 14.1837 20.5 14.25V14.75C20.5 14.8163 20.4737 14.8799 20.4268 14.9268C20.3799 14.9737 20.3163 15 20.25 15H3.75C3.6837 15 3.62011 14.9737 3.57322 14.9268C3.52634 14.8799 3.5 14.8163 3.5 14.75V14.25C3.5 14.1837 3.52634 14.1201 3.57322 14.0732C3.62011 14.0263 3.6837 14 3.75 14H5V9ZM5 17V20H19V17H5ZM4.5 16C4.36739 16 4.24021 16.0527 4.14645 16.1464C4.05268 16.2402 4 16.3674 4 16.5V20.5C4 20.6326 4.05268 20.7598 4.14645 20.8536C4.24021 20.9473 4.36739 21 4.5 21H19.5C19.6326 21 19.7598 20.9473 19.8536 20.8536C19.9473 20.7598 20 20.6326 20 20.5V16.5C20 16.3674 19.9473 16.2402 19.8536 16.1464C19.7598 16.0527 19.6326 16 19.5 16H4.5Z" fill="#7D92B5"/>
<path fill-rule="evenodd" clip-rule="evenodd" d="M5.0945 4L4.022 6.9565C4.00756 6.99608 4.00012 7.03787 4 7.08V8.275C4 8.6795 4.3235 9 4.7145 9C5.1045 9 5.4285 8.68 5.4285 8.2755C5.4285 8.14289 5.48118 8.01571 5.57495 7.92195C5.66871 7.82818 5.79589 7.7755 5.9285 7.7755C6.06111 7.7755 6.18829 7.82818 6.28205 7.92195C6.37582 8.01571 6.4285 8.14289 6.4285 8.2755C6.4273 8.46629 6.50188 8.64974 6.63584 8.78559C6.76981 8.92143 6.95222 8.99855 7.143 9C7.533 9 7.857 8.68 7.857 8.2755C7.857 8.14289 7.90968 8.01571 8.00345 7.92195C8.09721 7.82818 8.22439 7.7755 8.357 7.7755C8.48961 7.7755 8.61679 7.82818 8.71055 7.92195C8.80432 8.01571 8.857 8.14289 8.857 8.2755C8.8558 8.46629 8.93038 8.64974 9.06434 8.78559C9.19831 8.92143 9.38072 8.99855 9.5715 9C9.9615 9 10.2855 8.68 10.2855 8.276C10.2855 8.14339 10.3382 8.01621 10.4319 7.92245C10.5257 7.82868 10.6529 7.776 10.7855 7.776C10.9181 7.776 11.0453 7.82868 11.1391 7.92245C11.2328 8.01621 11.2855 8.14339 11.2855 8.276C11.286 8.68 11.61 9 12 9C12.39 9 12.7145 8.68 12.7145 8.2755C12.7145 8.14289 12.7672 8.01571 12.8609 7.92195C12.9547 7.82818 13.0819 7.7755 13.2145 7.7755C13.3471 7.7755 13.4743 7.82818 13.5681 7.92195C13.6618 8.01571 13.7145 8.14289 13.7145 8.2755C13.7145 8.6795 14.038 9 14.4285 9C14.8185 9 15.1425 8.68 15.143 8.276C15.143 8.14339 15.1957 8.01621 15.2894 7.92245C15.3832 7.82868 15.5104 7.776 15.643 7.776C15.7756 7.776 15.9028 7.82868 15.9966 7.92245C16.0903 8.01621 16.143 8.14339 16.143 8.276C16.143 8.68 16.467 9 16.857 9C17.2475 9 17.5715 8.68 17.5715 8.2755C17.5715 8.14289 17.6242 8.01571 17.7179 7.92195C17.8117 7.82818 17.9389 7.7755 18.0715 7.7755C18.2041 7.7755 18.3313 7.82818 18.4251 7.92195C18.5188 8.01571 18.5715 8.14289 18.5715 8.2755C18.5715 8.6795 18.895 9 19.2855 9C19.6765 9 20 8.68 20 8.2755V7.0805C19.9999 7.0382 19.9925 6.99624 19.978 6.9565L18.9055 4H5.095H5.0945ZM18.888 3.952L18.959 3.926L18.888 3.952ZM18.0715 9.493C17.9128 9.65387 17.7237 9.78155 17.5152 9.8686C17.3067 9.95565 17.083 10.0003 16.857 10C16.6311 10.0003 16.4075 9.95559 16.199 9.86854C15.9906 9.7815 15.8016 9.65384 15.643 9.493C15.4844 9.6539 15.2953 9.78159 15.0867 9.86864C14.8782 9.95568 14.6545 10.0003 14.4285 10C14.2026 10.0003 13.979 9.95559 13.7705 9.86854C13.5621 9.7815 13.3731 9.65384 13.2145 9.493C13.0559 9.6539 12.8668 9.78159 12.6582 9.86864C12.4497 9.95568 12.226 10.0003 12 10C11.774 10.0003 11.5503 9.95568 11.3418 9.86864C11.1332 9.78159 10.9441 9.6539 10.7855 9.493C10.6269 9.65384 10.4379 9.7815 10.2295 9.86854C10.021 9.95559 9.79737 10.0003 9.5715 10C9.096 10 8.6665 9.8055 8.357 9.493C8.19841 9.65384 8.0094 9.7815 7.80097 9.86854C7.59254 9.95559 7.36887 10.0003 7.143 10C6.91705 10.0003 6.69329 9.95565 6.48478 9.8686C6.27627 9.78155 6.08716 9.65387 5.9285 9.493C5.76997 9.65378 5.58104 9.7814 5.3727 9.86845C5.16436 9.95549 4.94079 10.0002 4.715 10C3.7635 10 3 9.224 3 8.2755V7.0805C3 6.922 3.0275 6.7645 3.0815 6.6155L4.1715 3.6105C4.23616 3.43164 4.35439 3.27707 4.51007 3.16782C4.66574 3.05858 4.85131 2.99998 5.0415 3H18.9595C19.1496 3.00022 19.335 3.05899 19.4905 3.16832C19.6459 3.27764 19.764 3.43221 19.8285 3.611L20.9185 6.6155C20.973 6.7645 21.0005 6.922 21.0005 7.0805V8.2755C21 9.224 20.2365 10 19.2855 10C19.0596 10.0003 18.836 9.95559 18.6275 9.86854C18.4191 9.7815 18.2301 9.65384 18.0715 9.493Z" fill="#7D92B5"/>
<path d="M7 12.75C7 12.6837 7.02634 12.6201 7.07322 12.5732C7.12011 12.5263 7.1837 12.5 7.25 12.5H8.75C8.8163 12.5 8.87989 12.5263 8.92678 12.5732C8.97366 12.6201 9 12.6837 9 12.75V13.75C9 13.8163 8.97366 13.8799 8.92678 13.9268C8.87989 13.9737 8.8163 14 8.75 14H7.25C7.1837 14 7.12011 13.9737 7.07322 13.9268C7.02634 13.8799 7 13.8163 7 13.75V12.75Z" fill="#7D92B5"/>
<path d="M8 13.25C8 13.1837 8.02634 13.1201 8.07322 13.0732C8.12011 13.0263 8.1837 13 8.25 13H9.75C9.8163 13 9.87989 13.0263 9.92678 13.0732C9.97366 13.1201 10 13.1837 10 13.25V13.75C10 13.8163 9.97366 13.8799 9.92678 13.9268C9.87989 13.9737 9.8163 14 9.75 14H8.25C8.1837 14 8.12011 13.9737 8.07322 13.9268C8.02634 13.8799 8 13.8163 8 13.75V13.25ZM12 13.25C12 13.4489 11.921 13.6397 11.7803 13.7803C11.6397 13.921 11.4489 14 11.25 14C11.0511 14 10.8603 13.921 10.7197 13.7803C10.579 13.6397 10.5 13.4489 10.5 13.25C10.5 13.0511 10.579 12.8603 10.7197 12.7197C10.8603 12.579 11.0511 12.5 11.25 12.5C11.4489 12.5 11.6397 12.579 11.7803 12.7197C11.921 12.8603 12 13.0511 12 13.25Z" fill="#7D92B5"/>
</svg>
