<svg width="24" height="24" viewBox="0 0 24 24" fill="none" xmlns="http://www.w3.org/2000/svg">
<path d="M12 2.25C11.3055 2.25 10.5413 2.4525 9.89025 2.64825C9.252 2.84175 8.78325 3.04125 8.76525 3.0465H8.74275L6.58575 3.774L6.51525 3.7965C6.42032 3.8233 6.32672 3.85458 6.23475 3.89025L6 3.9615V3.9855C5.373 4.25475 4.39125 4.8375 3.8205 6.048C3.04425 7.6875 3 9.726 3 9.726V11.25H6V21.75H18V11.25H21V9.6795C21 9.6795 20.9355 9.04425 20.8125 8.27325C20.6895 7.503 20.5635 6.65325 20.133 5.97675C19.6125 5.14602 18.875 4.4733 18 4.03125V3.96075L17.6955 3.867C17.6512 3.84675 17.6602 3.85875 17.625 3.84375L17.484 3.7965L15.258 3.0465H15.234C15.2168 3.04125 14.748 2.84175 14.109 2.649C13.4587 2.4525 12.6952 2.25 12 2.25ZM12 3.75C12.3255 3.75 13.0695 3.9225 13.6642 4.10175C13.8195 4.14825 13.8105 4.15125 13.9455 4.1955C13.8982 4.26525 13.863 4.33275 13.8045 4.40625C13.4535 4.84275 12.9607 5.25 12 5.25C11.0393 5.25 10.5465 4.84275 10.1955 4.40625C10.137 4.33275 10.1017 4.26525 10.0545 4.1955C10.1895 4.15125 10.1805 4.14825 10.3358 4.10175C10.9305 3.9225 11.6745 3.75 12 3.75ZM8.57775 4.66425C8.6895 4.878 8.83275 5.10675 9.02325 5.34375C9.38074 5.78805 9.83437 6.14544 10.35 6.38903C10.8656 6.63261 11.4298 6.75603 12 6.75C13.4295 6.75 14.4225 6.03225 14.9767 5.34375C15.1672 5.10675 15.3105 4.878 15.4215 4.66425L16.5 5.03925V20.25H7.5V5.03925L8.57775 4.66425ZM6 5.6715V9.75H4.5C4.503 9.70875 4.617 7.89225 5.1795 6.70275C5.36479 6.29743 5.64649 5.94363 6 5.67225V5.6715ZM18 5.78925C18.2753 6.02025 18.5798 6.32175 18.867 6.77325C18.987 6.96375 19.2218 7.8045 19.3358 8.508C19.4445 9.1725 19.494 9.6915 19.5 9.75H18V5.78925Z" fill="#7D92B5"/>
</svg>
