<svg width="24" height="24" viewBox="0 0 24 24" fill="none" xmlns="http://www.w3.org/2000/svg">
<path d="M12.8855 0.738178L21.3107 5.60241C21.8584 5.91868 22.1959 6.50316 22.1959 7.1357V16.8642C22.1959 17.4967 21.8584 18.0812 21.3107 18.3974L12.8855 23.2616C12.3377 23.578 11.6628 23.578 11.115 23.2616L2.68994 18.3974C2.14213 18.0812 1.80469 17.4967 1.80469 16.8642V7.1357C1.80469 6.50316 2.14213 5.91868 2.68994 5.60241L11.115 0.738178C11.6628 0.421909 12.3377 0.421909 12.8855 0.738178Z" stroke="#7D92B5"/>
<path d="M6.88867 9.87061H8.05641L9.71438 12.5806H9.72539V9.87061H10.5847V13.7704H9.461L7.75897 10.9943H7.74795V13.7704H6.88867V9.87061ZM11.4133 9.87061H14.0297V10.6638H12.2725V11.457H13.8975V12.2501H12.2725V13.7704H11.4133V9.87061ZM15.4 10.6307H14.2873V9.87061H17.3719V10.6307H16.2592V13.7704H15.4V10.6307Z" fill="#7D92B5"/>
</svg>
