<svg width="16" height="16" viewBox="0 0 16 16" fill="none" xmlns="http://www.w3.org/2000/svg">
<circle cx="8" cy="8" r="8" fill="#2BA765" fill-opacity="0.1"/>
<path d="M7.65367 6.15681L5.4477 8.67785C5.18736 8.97544 5.39894 9.44092 5.79405 9.44092H10.206C10.2944 9.441 10.381 9.41558 10.4553 9.36772C10.5297 9.31986 10.5887 9.25158 10.6252 9.17107C10.6618 9.09055 10.6743 9.0012 10.6614 8.91373C10.6485 8.82625 10.6106 8.74436 10.5523 8.67785L8.34637 6.15727C8.30319 6.10786 8.24995 6.06827 8.19022 6.04114C8.13048 6.01401 8.06563 5.99997 8.00002 5.99997C7.93441 5.99997 7.86956 6.01401 7.80982 6.04114C7.75008 6.06827 7.69684 6.10786 7.65367 6.15727V6.15681Z" fill="#2BA765"/>
</svg>
